# xmcd CD database file
#
# Track frame offsets:
#	150
#	29584
#	54907
#	80868
#	89250
#	122750
#	139028
#	169281
#	192727
#	200807
#	225640
#	250179
#	271639
#
# Disc length: 3962 seconds
#
# Revision: 0
# Processed by: cddbd v1.5.2PL0 Copyright (c) Steve Scherf et al.
# Submitted via: CDex 1.70beta2
#
DISCID=bb0f780d
DTITLE=jaz'presso - Eariedance
DYEAR=2008
DGENRE=Jazz
TTITLE0=Kurage
TTITLE1=Nocloud
TTITLE2=Time Is Right
TTITLE3=Chaos
TTITLE4=Eeriedance
TTITLE5=Pine Under
TTITLE6=Wabi
TTITLE7=Moons
TTITLE8=Air Duct Introduction
TTITLE9=Air Duct
TTITLE10=Lumplight
TTITLE11=Fall
TTITLE12=Leaving
EXTD=YEAR: 2008
EXTT0=
EXTT1=
EXTT2=
EXTT3=
EXTT4=
EXTT5=
EXTT6=
EXTT7=
EXTT8=
EXTT9=
EXTT10=
EXTT11=
EXTT12=
PLAYORDER=
